<svg width="512" height="512" viewBox="0 0 512 512" fill="none" xmlns="http://www.w3.org/2000/svg">
<g clip-path="url(#clip0_1_11)">
<path d="M0 0V170H170V0H0ZM130 130H40V40H130V130Z" fill="black"/>
<path d="M65 65H105V105H65V65ZM342 0V170H512V0H342ZM472 130H382V40H472V130Z" fill="black"/>
<path d="M407 65H447V105H407V65ZM0 342V512H170V342H0ZM130 472H40V382H130V472Z" fill="black"/>
<path d="M65 407H105V447H65V407ZM40 197H80V237H40V197ZM120 277V237H80V277H119V317H159V277H120ZM280 77H320V117H280V77ZM200 40H240V117H200V40ZM240 0H280V40H240V0ZM240 117V157H200V197H280V117H240ZM280 355V316H240V237H200V317H240V356H280V395H360V355H280Z" fill="black"/>
<path d="M280 197H320V277H280V197ZM472 236V197H399V237H360V277H400V316H512V236H472ZM472 276H400V237H472V276ZM472 355H512V435H472V355ZM320 277H360V317H320V277ZM360 395H400V435H360V395ZM400 355H440V395H400V355ZM400 435V512H440V475H472V435H400ZM200 356H240V432H200V356ZM320 472V432H240V512H280V472H319V512H359V472H320ZM120 197H200V237H120V197ZM0 237H40V317H0V237Z" fill="black"/>
</g>
<defs>
<clipPath id="clip0_1_11">
<rect width="512" height="512" fill="white"/>
</clipPath>
</defs>
</svg>
