<svg width="512" height="512" viewBox="0 0 512 512" fill="none" xmlns="http://www.w3.org/2000/svg">
<g clip-path="url(#clip0_1_2)">
<path d="M30 30H120V0H0V120H30V30ZM392 0V30H482V120H512V0H392ZM482 482H392V512H512V392H482V482ZM30 392H0V512H120V482H30V392Z" fill="black"/>
<path d="M61 60V210H211V120H241V90H211V60H61ZM181 180H91V90H181V180ZM451 450V300H391V270H361V300H271V330H301V360H271V390H301V450H451ZM331 330H421V420H331V330ZM151 270H211V240H61V270H121V300H91V330H121V390H91V420H121V450H271V420H241V390H211V420H151V390H181V360H151V270Z" fill="black"/>
<path d="M121 120H151V150H121V120ZM361 120H391V150H361V120Z" fill="black"/>
<path d="M391 210H451V60H301V210H361V240H391V210ZM331 180V90H421V180H331ZM451 270V240H391V270H451ZM361 360H391V390H361V360ZM241 330H271V360H241V330ZM181 360H211V300H181V360ZM211 270H241V300H211V270ZM91 330H61V390H91V330ZM61 420H91V450H61V420ZM241 60H271V90H241V60ZM241 180H271V120H241V180ZM271 240V210H241V270H361V240H271Z" fill="black"/>
</g>
<defs>
<clipPath id="clip0_1_2">
<rect width="512" height="512" fill="white"/>
</clipPath>
</defs>
</svg>
